<?xml version="1.0" encoding="utf-8"?>
<!-- Generator: Adobe Illustrator 26.0.3, SVG Export Plug-In . SVG Version: 6.00 Build 0)  -->
<svg version="1.0" id="katman_1" xmlns="http://www.w3.org/2000/svg" xmlns:xlink="http://www.w3.org/1999/xlink" x="0px" y="0px"
	 viewBox="0 0 600 450" style="enable-background:new 0 0 600 450;" xml:space="preserve">
<style type="text/css">
	.st0{fill:#010202;}
</style>
<g>
	<path class="st0" d="M187.1,376.5c-1.5-1.5-3.1-4.6-3.1-6.2V139.6h-18.5c-3.1,0-4.6-1.5-7.7-3.1c-1.5-1.5-1.5-4.6-1.5-6.2
		c0-3.1,1.5-4.6,3.1-6.2c1.5-3.1,3.1-4.6,6.2-4.6h76.9V81.2c0-3.1,1.5-4.6,3.1-6.2c1.5-1.5,4.6-3.1,6.2-3.1h96.9
		c3.1,0,4.6,1.5,6.2,3.1c1.5,1.5,3.1,4.6,3.1,6.2v38.5h76.9c3.1,0,4.6,1.5,6.2,3.1c1.5,1.5,3.1,4.6,3.1,6.2c0,3.1-1.5,4.6-3.1,6.2
		c-1.5,1.5-4.6,3.1-6.2,3.1h-20v230.7c0,3.1-1.5,4.6-3.1,6.2c-1.5,1.5-4.6,3.1-6.2,3.1H194.7C191.7,379.6,188.6,378.1,187.1,376.5z
		 M396.3,139.6H204v221.5h192.3V139.6z M259.4,190.4c1.5,1.5,3.1,4.6,3.1,6.2v106.1c0,3.1-1.5,4.6-3.1,6.2c-1.5,1.5-4.6,3.1-6.2,3.1
		s-4.6-1.5-6.2-3.1s-3.1-4.6-3.1-6.2V196.6c0-3.1,1.5-4.6,3.1-6.2c1.5-1.5,4.6-3.1,6.2-3.1S256.3,188.9,259.4,190.4z M260.9,119.6
		h76.9V92h-76.9V119.6z M307,190.4c1.5,1.5,3.1,4.6,3.1,6.2v106.1c0,3.1-1.5,4.6-3.1,6.2s-4.6,3.1-6.2,3.1s-4.6-1.5-6.2-3.1
		c-1.5-1.5-3.1-4.6-3.1-6.2V196.6c0-3.1,1.5-4.6,3.1-6.2c1.5-1.5,4.6-3.1,6.2-3.1S305.5,188.9,307,190.4z M340.9,190.4
		c1.5-1.5,4.6-3.1,6.2-3.1s4.6,1.5,6.2,3.1c1.5,1.5,3.1,4.6,3.1,6.2v106.1c0,3.1-1.5,4.6-3.1,6.2s-4.6,3.1-6.2,3.1s-4.6-1.5-6.2-3.1
		c-1.5-1.5-3.1-4.6-3.1-6.2V196.6C337.8,195,339.4,191.9,340.9,190.4z"/>
</g>
</svg>
